<?xml version="1.0" encoding="iso-8859-1"?>
<!-- Generator: Adobe Illustrator 19.0.0, SVG Export Plug-In . SVG Version: 6.00 Build 0)  -->
<svg version="1.1" id="Layer_1" xmlns="http://www.w3.org/2000/svg" xmlns:xlink="http://www.w3.org/1999/xlink" x="0px" y="0px"
	 viewBox="0 0 512 512" style="enable-background:new 0 0 512 512;" xml:space="preserve">
<rect x="221.024" y="7.598" style="fill:#E0DCCD;" width="70.126" height="47.1"/>
<rect x="7.875" y="259.74" style="fill:#FCBB3B;" width="496.149" height="244.134"/>
<rect y="233.866" style="fill:#75C0C7;" width="511.902" height="25.869"/>
<rect y="236.294" style="fill:#589095;" width="173.254" height="25.35"/>
<path d="M511.879,511.729H0.025V251.89h511.853L511.879,511.729L511.879,511.729z M15.725,496.029h480.454V267.59H15.725V496.029z"
	/>
<g>
	<rect x="55.128" y="291.244" style="fill:#BD8C2C;" width="23.626" height="189.446"/>
	<rect x="110.255" y="291.244" style="fill:#BD8C2C;" width="23.898" height="189.446"/>
	<rect x="165.383" y="291.244" style="fill:#BD8C2C;" width="24.241" height="189.446"/>
	<rect x="220.511" y="291.244" style="fill:#BD8C2C;" width="23.626" height="189.446"/>
	<rect x="275.639" y="291.244" style="fill:#BD8C2C;" width="23.626" height="189.446"/>
	<rect x="330.766" y="291.244" style="fill:#BD8C2C;" width="23.184" height="189.446"/>
	<rect x="385.894" y="291.244" style="fill:#BD8C2C;" width="24.578" height="189.446"/>
	<rect x="441.315" y="291.244" style="fill:#BD8C2C;" width="23.626" height="189.446"/>
</g>
<polygon points="62.982,480.689 47.282,480.689 47.282,282.87 78.682,282.87 78.682,298.57 62.982,298.57 "/>
<polygon points="117.408,480.689 101.708,480.689 101.708,282.87 134.155,282.87 134.155,298.57 117.408,298.57 "/>
<polygon points="173.928,480.689 158.228,480.689 158.228,282.87 189.628,282.87 189.628,298.57 173.928,298.57 "/>
<polygon points="228.355,480.689 212.655,480.689 212.655,282.87 244.054,282.87 244.054,298.57 228.355,298.57 "/>
<polygon points="283.828,480.689 268.128,480.689 268.128,282.87 299.528,282.87 299.528,298.57 283.828,298.57 "/>
<polygon points="338.254,480.689 322.554,480.689 322.554,282.87 353.954,282.87 353.954,298.57 338.254,298.57 "/>
<polygon points="393.727,480.689 378.027,480.689 378.027,282.87 410.474,282.87 410.474,298.57 393.727,298.57 "/>
<polygon points="449.2,480.689 433.5,480.689 433.5,282.87 464.9,282.87 464.9,298.57 449.2,298.57 "/>
<path d="M78.729,212.487h-15.7c0-4.356-3.544-7.9-7.901-7.9h-15.75c-4.357,0-7.901,3.544-7.901,7.9h-15.7
	c0-13.013,10.587-23.6,23.601-23.6h15.75C68.142,188.887,78.729,199.474,78.729,212.487z"/>
<polygon style="fill:#4BAF78;" points="54.609,212.744 38.909,212.744 38.909,177.716 56.981,159.79 68.038,170.937 54.609,184.257 
	"/>
<polygon points="496.3,228.443 496.3,220.07 480.6,220.07 480.6,228.443 449.2,228.443 449.2,220.07 433.5,220.07 433.5,228.443 
	78.682,228.443 78.682,220.07 62.982,220.07 62.982,228.443 31.582,228.443 31.582,220.07 15.882,220.07 15.882,228.443 
	0.182,228.443 0.182,244.143 512,244.143 512,228.443 "/>
<path d="M496.127,212.487h-15.7c0-4.356-3.545-7.9-7.901-7.9h-15.751c-4.356,0-7.901,3.544-7.901,7.9h-15.7
	c0-13.013,10.587-23.6,23.601-23.6h15.751C485.54,188.887,496.127,199.474,496.127,212.487z"/>
<polygon style="fill:#4BAF78;" points="473.273,212.744 457.574,212.744 457.574,184.257 444.145,170.937 455.2,159.79 
	473.273,177.716 "/>
<path d="M446.259,151.51L299.528,20.224V0.271h-86.873v19.702L65.645,151.51l10.469,11.701l136.541-122.17v20.983h86.873V41.29
	L435.79,163.209L446.259,151.51z M283.828,46.324h-55.473V15.971h55.473V46.324z"/>
<rect x="244.05" y="23.298" width="24.073" height="15.7"/>
<g>
</g>
<g>
</g>
<g>
</g>
<g>
</g>
<g>
</g>
<g>
</g>
<g>
</g>
<g>
</g>
<g>
</g>
<g>
</g>
<g>
</g>
<g>
</g>
<g>
</g>
<g>
</g>
<g>
</g>
</svg>
